<svg width="27" height="30" viewBox="0 0 27 30" fill="none" xmlns="http://www.w3.org/2000/svg">
<path fill-rule="evenodd" clip-rule="evenodd" d="M14.8172 3.42525L16.7835 0L22.3583 3.23775L20.3927 6.66225C20.0474 7.263 20.5642 7.9935 21.2413 7.86225L25.0085 7.131L26.2277 13.4888L22.4605 14.2192C16.3667 15.4012 11.7143 8.83125 14.8172 3.42525Z" fill="#090C1B"/>
<path fill-rule="evenodd" clip-rule="evenodd" d="M11.4105 26.5748L9.44416 30L3.86864 26.763L5.83502 23.3378C6.18028 22.737 5.66351 22.0065 4.98568 22.1378L1.2192 22.8683L0 16.5113L3.76722 15.7808C9.861 14.5988 14.5126 21.1688 11.4105 26.5748Z" fill="#090C1B"/>
<path fill-rule="evenodd" clip-rule="evenodd" d="M11.5809 3.42525L9.61529 0L4.03977 3.23775L6.00615 6.66225C6.35066 7.263 5.83464 7.9935 5.15681 7.86225L1.38959 7.131L0.171875 13.4888L3.93835 14.2192C10.0329 15.4012 14.6852 8.83125 11.5817 3.42525H11.5809Z" fill="#090C1B"/>
<path fill-rule="evenodd" clip-rule="evenodd" d="M14.6523 26.5748L16.6172 30L22.1928 26.763L20.2264 23.3378C19.8819 22.737 20.3979 22.0065 21.0757 22.1378L24.8422 22.8683L26.0614 16.5113L22.2942 15.7808C16.2004 14.5988 11.5488 21.1688 14.6508 26.5748H14.6523Z" fill="#090C1B"/>
</svg>
