<svg width="18" height="18" viewBox="0 0 18 18" fill="none" xmlns="http://www.w3.org/2000/svg">
<path d="M12.125 3.375C13.5057 3.375 14.625 4.49429 14.625 5.875M17.125 5.875C17.125 8.63642 14.8864 10.875 12.125 10.875C11.8327 10.875 11.5463 10.8499 11.2677 10.8018C10.7986 10.7207 10.3017 10.8233 9.965 11.16L7.75 13.375H5.875V15.25H4V17.125H0.875V14.7767C0.875 14.2794 1.07254 13.8025 1.42417 13.4508L6.84 8.035C7.17668 7.69832 7.27927 7.20144 7.1982 6.73225C7.15008 6.45372 7.125 6.16729 7.125 5.875C7.125 3.11358 9.36358 0.875 12.125 0.875C14.8864 0.875 17.125 3.11358 17.125 5.875Z" stroke="#8C8C8C" stroke-width="1.5" stroke-linecap="round" stroke-linejoin="round"/>
</svg>
