<svg width="173" height="30" viewBox="0 0 173 30" fill="none" xmlns="http://www.w3.org/2000/svg">
<path fill-rule="evenodd" clip-rule="evenodd" d="M14.8172 3.42525L16.7835 0L22.3583 3.23775L20.3927 6.66225C20.0474 7.263 20.5642 7.9935 21.2413 7.86225L25.0085 7.131L26.2277 13.4888L22.4605 14.2192C16.3667 15.4012 11.7143 8.83125 14.8172 3.42525Z" fill="#090C1B"/>
<path fill-rule="evenodd" clip-rule="evenodd" d="M11.4105 26.5748L9.44416 30L3.86864 26.763L5.83502 23.3378C6.18028 22.737 5.66351 22.0065 4.98568 22.1378L1.2192 22.8683L0 16.5113L3.76722 15.7808C9.861 14.5988 14.5126 21.1688 11.4105 26.5748Z" fill="#090C1B"/>
<path fill-rule="evenodd" clip-rule="evenodd" d="M11.5809 3.42525L9.61529 0L4.03977 3.23775L6.00615 6.66225C6.35066 7.263 5.83464 7.9935 5.15681 7.86225L1.38959 7.131L0.171875 13.4888L3.93835 14.2192C10.0329 15.4012 14.6852 8.83125 11.5817 3.42525H11.5809Z" fill="#090C1B"/>
<path fill-rule="evenodd" clip-rule="evenodd" d="M14.6523 26.5748L16.6172 30L22.1928 26.763L20.2264 23.3378C19.8819 22.737 20.3979 22.0065 21.0757 22.1378L24.8422 22.8683L26.0614 16.5113L22.2942 15.7808C16.2004 14.5988 11.5488 21.1688 14.6508 26.5748H14.6523Z" fill="#090C1B"/>
<path d="M43.6375 26.25C38.5264 26.25 35.1758 23.4098 35.1758 18.0738V5.25H38.9807V18.0738C38.9807 21.3443 40.6844 22.8648 43.6375 22.8648C46.5623 22.8648 48.266 21.3443 48.266 18.0738V5.25H52.0993V18.0738C52.0993 23.4098 48.7487 26.25 43.6375 26.25Z" fill="#090C1B"/>
<path d="M54.5191 25.9057V10.9877H57.9833V13.6557C58.9772 11.5615 60.5673 10.8156 62.4414 10.8156H63.6056V14.1434H62.2994C59.8006 14.1434 58.0969 15.2049 58.0969 18.6762V25.9057H54.5191Z" fill="#090C1B"/>
<path d="M65.2927 25.9057V5.25H68.8704V12.8525C69.8643 11.4754 71.3692 10.6434 73.4137 10.6434C77.7014 10.6434 80.0298 14 80.0298 18.4467C80.0298 22.8934 77.7014 26.25 73.4137 26.25C71.284 26.25 69.7223 25.332 68.7285 23.8402V25.9057H65.2927ZM68.8137 18.4467C68.8137 21.3156 70.0063 23.2377 72.5902 23.2377C75.2026 23.2377 76.3952 21.3156 76.3952 18.4467C76.3952 15.5779 75.2026 13.6557 72.5902 13.6557C70.0063 13.6557 68.8137 15.5779 68.8137 18.4467Z" fill="#090C1B"/>
<path d="M91.2024 25.9057V24.1844C89.9246 25.7336 88.3629 26.25 86.5172 26.25C83.3085 26.25 81.1221 24.6434 81.1221 21.7459C81.1221 19.1066 82.9678 17.7869 86.8011 17.127L91.0888 16.3525V15.4918C91.0888 14.1434 90.2937 13.4262 88.3912 13.4262C86.7727 13.4262 85.4098 14.1148 85.3246 15.75H81.8036C81.8604 12.1926 84.8135 10.6434 88.3629 10.6434C92.5653 10.6434 94.5814 12.3648 94.5814 15.0902V25.9057H91.2024ZM84.7851 21.6311C84.7851 22.8074 85.5801 23.582 87.3122 23.582C89.1863 23.582 91.0888 22.5779 91.0888 20.1107V18.791L87.4542 19.5369C85.7789 19.8811 84.7851 20.2828 84.7851 21.6311Z" fill="#090C1B"/>
<path d="M106.508 16.9262C106.508 15.1189 105.713 13.7992 103.669 13.7992C102.448 13.7992 100.517 14.4877 100.262 17.0984V25.9057H96.6838V10.9877H100.148V13.0246C101.17 11.6475 102.704 10.6434 104.805 10.6434C108.212 10.6434 110.058 12.9959 110.058 16.4959V25.9057H106.508V16.9262Z" fill="#090C1B"/>
<path d="M119.403 26.25C114.661 26.25 111.935 22.8934 111.935 18.4467C111.935 14 114.661 10.6434 119.403 10.6434C124.145 10.6434 126.871 14 126.871 18.4467C126.871 22.8934 124.145 26.25 119.403 26.25ZM115.569 18.4467C115.569 21.3156 116.762 23.2377 119.403 23.2377C122.044 23.2377 123.236 21.3156 123.236 18.4467C123.236 15.5779 122.044 13.6557 119.403 13.6557C116.762 13.6557 115.569 15.5779 115.569 18.4467Z" fill="#090C1B"/>
<path d="M132.29 19.9672C132.29 21.7746 133.085 23.0943 135.129 23.0943C136.35 23.0943 138.281 22.4057 138.537 19.7951V10.9877H142.115V25.9057H138.65V23.8689C137.628 25.2459 136.095 26.25 133.993 26.25C130.586 26.25 128.74 23.8975 128.74 20.3975V10.9877H132.29V19.9672Z" fill="#090C1B"/>
<path d="M150.38 26.25C146.462 26.25 143.849 24.7582 143.622 21H147.087C147.314 23.0082 148.506 23.6393 150.494 23.6393C152.198 23.6393 153.362 23.0082 153.362 21.8893C153.362 20.8279 152.936 20.3402 149.898 19.8238C145.269 19.0205 143.963 17.5574 143.963 15.1189C143.963 12.3074 146.405 10.6434 150.068 10.6434C154.327 10.6434 156.485 12.623 156.542 15.7213H153.22C153.135 13.7418 151.715 13.2541 150.068 13.2541C148.591 13.2541 147.456 13.8566 147.456 14.9754C147.456 16.0656 148.137 16.4959 151.09 16.9836C155.605 17.7295 156.911 19.1639 156.911 21.6598C156.911 24.6434 154.185 26.25 150.38 26.25Z" fill="#090C1B"/>
<path d="M165.085 26.25C160.513 26.25 157.788 22.8934 157.788 18.4467C157.788 14 160.513 10.6434 165.085 10.6434C169.657 10.6434 172.383 13.8852 172.383 18.7336V19.5943H161.337C161.649 21.918 162.955 23.4098 165.085 23.4098C166.817 23.4098 167.981 22.6639 168.606 21.3443H172.099C171.133 24.2992 168.606 26.25 165.085 26.25ZM161.365 17.0123H168.776C168.407 14.832 167.13 13.4836 165.085 13.4836C163.041 13.4836 161.763 14.832 161.365 17.0123Z" fill="#090C1B"/>
</svg>
